<?xml version="1.0" standalone="no"?>
<!DOCTYPE svg PUBLIC "-//W3C//DTD SVG 20010904//EN"
 "http://www.w3.org/TR/2001/REC-SVG-20010904/DTD/svg10.dtd">
<svg version="1.0" xmlns="http://www.w3.org/2000/svg"
 width="1024.000000pt" height="336.000000pt" viewBox="0 0 1024.000000 336.000000"
 preserveAspectRatio="xMidYMid meet">

<g transform="translate(0.000000,336.000000) scale(0.100000,-0.100000)"
fill="#000000" stroke="none">
<path d="M1402 2665 c-65 -18 -79 -25 -165 -83 -179 -119 -285 -320 -275 -518
8 -158 85 -258 320 -415 244 -164 263 -187 263 -334 0 -82 -3 -96 -33 -157
-56 -115 -183 -208 -283 -208 -63 0 -143 41 -177 93 -20 31 -27 55 -30 108 -5
83 13 141 68 224 22 33 40 68 40 77 0 49 -142 69 -216 31 -71 -38 -138 -107
-169 -174 -24 -54 -27 -71 -23 -133 6 -96 43 -168 124 -246 110 -106 260 -157
428 -147 109 6 166 24 270 85 135 78 233 184 271 292 29 83 38 194 20 263 -41
161 -130 263 -364 419 -86 57 -166 130 -187 171 -8 15 -19 52 -25 82 -21 113
25 237 121 329 82 79 128 99 211 94 120 -7 154 -50 154 -198 0 -81 -3 -100
-23 -131 -12 -20 -28 -55 -36 -77 -14 -40 -14 -42 7 -57 43 -30 132 -12 200
39 94 72 130 219 88 355 -31 101 -58 128 -201 199 -51 25 -66 27 -190 29 -95
2 -151 -2 -188 -12z"/>
<path d="M3994 2331 c-50 -30 -70 -114 -38 -159 65 -93 244 -51 244 58 0 38
-28 89 -59 104 -41 22 -109 20 -147 -3z"/>
<path d="M7331 1982 c-192 -110 -289 -266 -392 -624 -50 -173 -61 -197 -121
-243 -45 -34 -50 -35 -88 -25 -34 9 -40 15 -46 44 -7 37 9 153 31 231 7 28 23
84 34 126 18 66 58 150 119 251 23 37 8 73 -48 115 -25 18 -51 36 -59 40 -15
7 -16 7 -91 -54 -50 -42 -54 -43 -124 -43 l-73 0 5 53 c6 71 -16 112 -71 138
-89 40 -162 15 -199 -69 -24 -54 -19 -105 17 -163 l25 -39 -26 -63 c-54 -130
-127 -258 -156 -273 -21 -11 -29 -24 -34 -56 -6 -34 -20 -54 -72 -107 -36 -36
-67 -60 -69 -54 -5 15 41 310 71 453 13 63 30 158 36 210 12 92 12 94 -10 112
-17 13 -40 18 -92 18 l-69 0 -24 -52 c-13 -29 -24 -47 -24 -39 -2 32 -56 84
-118 114 -55 25 -72 29 -119 24 -117 -12 -220 -86 -321 -230 -62 -88 -100
-120 -173 -148 -78 -29 -78 -29 -79 54 -1 88 -28 169 -78 227 -47 55 -83 71
-167 76 -202 11 -361 -94 -465 -308 -55 -112 -101 -271 -101 -349 0 -45 -5
-54 -59 -117 -32 -38 -73 -80 -90 -95 -32 -27 -91 -44 -110 -32 -28 17 -5 143
69 380 66 212 110 376 110 409 0 18 -7 41 -15 54 -19 26 -115 57 -151 48 -31
-8 -38 -24 -110 -257 -73 -240 -126 -343 -240 -472 -72 -81 -99 -104 -157
-134 -63 -31 -77 -35 -134 -31 -48 3 -68 9 -87 27 -44 42 -57 150 -35 294 14
88 39 157 91 251 77 137 150 204 207 191 28 -6 28 -6 15 -43 -7 -20 -13 -60
-14 -89 0 -65 17 -77 101 -71 65 5 93 23 115 75 30 71 6 152 -64 215 -41 37
-49 41 -127 56 -141 28 -306 -52 -428 -208 -72 -93 -167 -159 -241 -167 l-44
-5 8 38 c23 99 -56 275 -142 320 -43 22 -164 26 -234 8 -101 -26 -172 -78
-253 -185 -66 -86 -112 -189 -148 -328 -21 -83 -24 -110 -19 -206 6 -129 23
-193 70 -256 49 -66 107 -92 219 -97 85 -4 91 -3 161 32 151 74 266 248 326
493 10 38 14 43 48 48 20 4 52 11 70 17 18 5 36 8 39 5 2 -3 -3 -40 -12 -82
-13 -56 -16 -105 -13 -180 6 -126 33 -193 106 -253 84 -70 104 -77 228 -77
110 0 111 0 195 42 84 43 159 105 232 193 l37 45 -7 -62 c-7 -71 12 -135 50
-171 28 -26 99 -52 143 -52 70 0 168 54 263 147 30 29 55 52 55 50 9 -30 57
-105 82 -126 83 -74 253 -93 358 -42 78 38 159 124 218 230 45 80 58 95 88
105 l35 11 3 97 3 97 57 16 c31 9 65 19 76 22 16 4 18 1 13 -18 -10 -41 -26
-180 -32 -284 -5 -78 -3 -110 10 -144 37 -106 127 -167 235 -159 72 5 165 50
238 114 29 25 55 44 58 42 2 -3 -2 -20 -10 -39 -15 -36 -106 -99 -279 -193
-117 -64 -243 -154 -290 -206 -138 -153 -123 -320 35 -391 43 -19 70 -24 143
-24 110 1 155 13 235 67 133 89 252 280 334 540 l46 143 68 42 c40 24 106 81
162 140 80 83 111 127 210 291 l115 194 88 1 c48 1 86 0 85 -3 -23 -45 -94
-240 -109 -297 -22 -86 -26 -249 -8 -304 33 -97 148 -143 271 -109 58 17 156
88 200 147 l42 55 11 -44 c27 -106 91 -158 206 -166 60 -4 75 -1 131 25 69 33
168 115 169 141 0 10 6 -5 13 -31 16 -57 64 -112 114 -128 84 -28 214 11 306
92 l46 41 0 -41 c0 -51 25 -70 103 -78 79 -8 126 3 131 30 38 200 120 497 161
583 79 164 215 290 263 242 20 -20 15 -49 -49 -291 -93 -353 -109 -424 -109
-482 0 -73 17 -85 126 -85 104 0 113 9 138 146 74 404 149 589 282 695 72 57
117 50 122 -19 2 -31 -2 -46 -19 -63 -17 -17 -24 -40 -30 -105 -6 -60 -23
-123 -59 -222 -44 -120 -50 -146 -50 -215 0 -91 26 -154 85 -205 32 -29 42
-32 99 -32 105 0 160 23 233 95 63 63 128 176 135 235 3 21 -2 26 -26 28 -25
3 -42 -9 -121 -88 -84 -84 -95 -91 -126 -88 -33 3 -34 4 -37 55 -2 42 9 87 62
245 111 329 121 448 49 546 -34 46 -72 62 -145 62 -48 0 -75 -6 -117 -27 -63
-32 -152 -116 -199 -187 l-32 -49 0 64 c0 89 -29 146 -90 177 -81 42 -174 7
-293 -110 -38 -37 -67 -61 -64 -54 14 35 18 105 8 124 -11 21 -97 52 -144 52
-51 0 -72 -54 -162 -421 -65 -259 -172 -428 -299 -469 -35 -11 -41 -11 -54 6
-30 40 6 227 109 572 33 112 59 215 57 230 -4 39 -59 72 -119 72 -48 0 -49 0
-75 -52 l-26 -51 -40 46 c-55 65 -115 98 -185 103 -52 3 -65 0 -122 -34z
m-1676 -159 c70 -71 89 -178 58 -328 -24 -110 -74 -203 -173 -315 -57 -64 -76
-79 -115 -90 -43 -12 -48 -11 -66 7 -59 59 -49 325 18 458 17 33 36 78 43 100
7 22 18 47 25 55 7 8 20 31 28 51 33 80 130 113 182 62z m1871 -7 c56 -48 81
-126 63 -199 -23 -96 -110 -311 -151 -375 -79 -121 -184 -190 -226 -148 -14
13 -18 41 -20 144 -3 109 0 141 22 224 26 101 87 245 134 312 25 37 88 75 123
76 8 0 33 -15 55 -34z m-5018 -2 c26 -7 28 -21 6 -45 -9 -10 -20 -36 -25 -60
-12 -53 10 -135 46 -169 30 -29 31 -52 5 -155 -26 -100 -56 -165 -114 -242
-41 -56 -50 -63 -81 -63 -54 0 -85 20 -111 72 -20 39 -24 62 -24 131 0 160
109 437 198 504 44 33 59 37 100 27z m2212 -4 c12 -8 12 -11 -3 -28 -23 -25
-42 -118 -34 -162 4 -20 21 -51 39 -70 39 -43 39 -87 2 -210 -28 -92 -67 -164
-123 -222 -65 -70 -147 -44 -176 54 -29 97 -17 207 40 381 34 106 66 165 112
208 61 58 105 73 143 49z m829 -1103 c-57 -158 -159 -306 -241 -348 -51 -26
-122 -25 -149 2 -18 18 -20 29 -15 65 3 25 12 57 20 72 19 38 130 140 208 194
81 55 202 119 206 109 1 -4 -11 -47 -29 -94z"/>
</g>
</svg>
